<svg width="185" height="164" viewBox="0 0 185 164" fill="none" xmlns="http://www.w3.org/2000/svg">
<path d="M92.5 47.8333C92.5 40.5841 89.2515 33.6317 83.4691 28.5057C77.6868 23.3798 69.8442 20.5 61.6667 20.5H15.4167V123H69.375C75.5081 123 81.3901 125.16 85.7269 129.004C90.0636 132.849 92.5 138.063 92.5 143.5M92.5 47.8333V143.5M92.5 47.8333C92.5 40.5841 95.7485 33.6317 101.531 28.5057C107.313 23.3798 115.156 20.5 123.333 20.5H169.583V123H115.625C109.492 123 103.61 125.16 99.2732 129.004C94.9364 132.849 92.5 138.063 92.5 143.5" stroke="white" stroke-width="4" stroke-linecap="round" stroke-linejoin="round"/>
</svg>
