<svg width="155" height="115" viewBox="0 0 155 115" fill="none" xmlns="http://www.w3.org/2000/svg">
<path d="M77.0833 25.5063C77.0833 18.7416 73.8348 12.254 68.0525 7.47063C62.2701 2.68727 54.4275 0 46.25 0H0V95.6487H53.9583C60.0915 95.6487 65.9734 97.6642 70.3102 101.252C74.647 104.839 77.0833 109.705 77.0833 114.778M77.0833 25.5063V114.778M77.0833 25.5063C77.0833 18.7416 80.3318 12.254 86.1142 7.47063C91.8966 2.68727 99.7392 0 107.917 0H154.167V95.6487H100.208C94.0752 95.6487 88.1933 97.6642 83.8565 101.252C79.5197 104.839 77.0833 109.705 77.0833 114.778" stroke="white" stroke-width="4" stroke-linecap="round" stroke-linejoin="round"/>
</svg>
