<svg width="90" height="90" viewBox="0 0 90 90" fill="none" xmlns="http://www.w3.org/2000/svg">
<path d="M15.8398 79.245C17.0774 75.1261 19.6097 71.5159 23.0611 68.9499C26.5125 66.3839 30.6991 64.9987 34.9998 65H54.9998C59.3061 64.9985 63.4979 66.387 66.9518 68.9589C70.4057 71.5309 72.9372 75.1489 74.1698 79.275M0 45C-8.80559e-08 50.9095 1.16396 56.7611 3.42542 62.2208C5.68688 67.6804 9.00156 72.6412 13.1802 76.8198C17.3588 80.9984 22.3196 84.3131 27.7792 86.5746C33.2389 88.836 39.0905 90 45 90C50.9095 90 56.7611 88.836 62.2208 86.5746C67.6804 84.3131 72.6412 80.9984 76.8198 76.8198C80.9984 72.6412 84.3131 67.6804 86.5746 62.2208C88.836 56.7611 90 50.9095 90 45C90 39.0905 88.836 33.2389 86.5746 27.7792C84.3131 22.3196 80.9984 17.3588 76.8198 13.1802C72.6412 9.00156 67.6804 5.68688 62.2208 3.42542C56.7611 1.16396 50.9095 0 45 0C39.0905 0 33.2389 1.16396 27.7792 3.42542C22.3196 5.68688 17.3588 9.00156 13.1802 13.1802C9.00156 17.3588 5.68688 22.3196 3.42542 27.7792C1.16396 33.2389 -8.80559e-08 39.0905 0 45ZM30 35C30 38.9782 31.5804 42.7936 34.3934 45.6066C37.2064 48.4196 41.0218 50 45 50C48.9782 50 52.7936 48.4196 55.6066 45.6066C58.4196 42.7936 60 38.9782 60 35C60 31.0218 58.4196 27.2064 55.6066 24.3934C52.7936 21.5804 48.9782 20 45 20C41.0218 20 37.2064 21.5804 34.3934 24.3934C31.5804 27.2064 30 31.0218 30 35Z" stroke="#162589" stroke-width="5" stroke-linecap="round" stroke-linejoin="round"/>
</svg>
